<svg width="40" height="30" viewBox="0 0 40 30" fill="none" xmlns="http://www.w3.org/2000/svg">
<path d="M38.2119 21.8776L35.792 21.1862C35.6875 21.1563 35.6145 21.0596 35.6145 20.9509V20.1432C35.8114 20.0068 35.9992 19.8541 36.1748 19.6837C37.0255 18.8581 37.4941 17.7507 37.4941 16.5654V15.4508L37.728 14.9829C37.9848 14.4692 38.1205 13.8941 38.1205 13.3199V10.3004C38.1205 9.97678 37.8582 9.71444 37.5346 9.71444H31.8961C29.8458 9.71444 28.1777 11.3826 28.1777 13.4329V13.4678C28.1777 13.9453 28.2905 14.4235 28.5041 14.8505L28.8041 15.4507V16.4077C28.8041 17.9244 29.5516 19.2853 30.6837 20.1042L30.6838 20.9508C30.6838 21.0813 30.6838 21.1354 30.2 21.2737L29.0192 21.611L25.6035 20.369C25.6158 20.2078 25.5614 20.0439 25.4438 19.9204L24.3523 18.7737V16.8487C24.4677 16.7536 24.5815 16.6559 24.6917 16.5526C26.0687 15.262 26.8584 13.4398 26.8584 11.5533V10.016C27.2741 9.11123 27.4848 8.15381 27.4848 7.1678V0.902954C27.4848 0.57936 27.2225 0.317017 26.8989 0.317017H18.1279C15.0412 0.317017 12.53 2.82827 12.53 5.91491V7.16795C12.53 8.15397 12.7407 9.11139 13.1565 10.0162V11.3389C13.1565 13.5292 14.1304 15.5025 15.6625 16.8034V18.7737L14.571 19.9205C14.4534 20.044 14.3991 20.2079 14.4113 20.369L10.8063 21.6799C10.545 21.7749 10.3023 21.9036 10.0819 22.0594L9.51578 21.7764C11.2009 21.0429 11.7348 20.0112 11.7604 19.96C11.8429 19.7951 11.8429 19.6008 11.7604 19.4359C11.338 18.5911 11.2868 17.0426 11.2457 15.7983C11.232 15.3841 11.2191 14.9928 11.1943 14.6444C10.9945 11.8339 8.85797 9.71444 6.22437 9.71444C3.59078 9.71444 1.45414 11.8338 1.25445 14.6444C1.22969 14.9929 1.21672 15.3842 1.20305 15.7985C1.16195 17.0426 1.1107 18.591 0.688359 19.4358C0.605859 19.6008 0.605859 19.795 0.688359 19.9599C0.713984 20.0112 1.24672 21.0407 2.93523 21.7751L1.36281 22.5612C0.522187 22.9819 0 23.8268 0 24.7665V29.0954C0 29.419 0.262344 29.6813 0.585938 29.6813C0.909531 29.6813 1.17188 29.419 1.17188 29.0954V24.7665C1.17188 24.2734 1.44586 23.8301 1.88688 23.6095L3.84492 22.6305L4.52602 23.2778C5.00227 23.7304 5.6132 23.9565 6.22437 23.9565C6.83539 23.9565 7.44664 23.7302 7.92273 23.2778L8.60375 22.6306L9.24219 22.9498C8.94156 23.4308 8.77094 23.9949 8.77094 24.5858V29.0955C8.77094 29.4191 9.03328 29.6815 9.35687 29.6815C9.68047 29.6815 9.94281 29.4191 9.94281 29.0955V24.5858C9.94281 23.7814 10.4507 23.0562 11.2067 22.7813L15.0077 21.3992L16.5899 23.7727C16.7922 24.0762 17.1163 24.2708 17.4792 24.3067C17.5197 24.3107 17.5599 24.3126 17.6001 24.3126C17.9202 24.3126 18.2269 24.1866 18.4561 23.9575L19.4214 22.9922V29.0956C19.4214 29.4192 19.6838 29.6815 20.0073 29.6815C20.3309 29.6815 20.5933 29.4192 20.5933 29.0956V22.9922L21.5586 23.9575C21.7877 24.1867 22.0944 24.3127 22.4146 24.3127C22.4547 24.3127 22.495 24.3108 22.5354 24.3068C22.8984 24.2708 23.2225 24.0762 23.4248 23.7728L25.0071 21.3994L28.808 22.7815C29.5639 23.0564 30.0719 23.7815 30.0719 24.5859V29.0957C30.0719 29.4193 30.3342 29.6816 30.6578 29.6816C30.9814 29.6816 31.2438 29.4193 31.2438 29.0957V24.5859C31.2438 23.7712 30.9201 23.0072 30.3771 22.4421L30.5219 22.4008C30.6679 22.359 30.8671 22.3019 31.0671 22.2039L32.5631 23.6999V29.0957C32.5631 29.4193 32.8255 29.6816 33.1491 29.6816C33.4727 29.6816 33.735 29.4193 33.735 29.0957V23.6999L35.2206 22.2143C35.2996 22.2544 35.3826 22.2883 35.4699 22.3133L37.8899 23.0047C38.4423 23.1625 38.8281 23.674 38.8281 24.2485V29.0957C38.8281 29.4193 39.0905 29.6816 39.4141 29.6816C39.7377 29.6816 40 29.4193 40 29.0957V24.2485C40 23.1533 39.2647 22.1784 38.2119 21.8776ZM3.75898 20.8426C2.66297 20.4483 2.1132 19.9225 1.87852 19.6354C2.03852 19.2171 2.14227 18.738 2.2125 18.2323C2.53562 19.0071 3.0768 19.6685 3.75898 20.1404V20.8426ZM7.11563 22.4284C6.61586 22.9033 5.83297 22.9032 5.33336 22.4283L4.78844 21.9105C4.88039 21.7383 4.93094 21.543 4.93094 21.3383V20.7138C5.33969 20.8415 5.77422 20.9104 6.22453 20.9104C6.6743 20.9104 7.10859 20.8412 7.51805 20.7142L7.51797 21.3383C7.51797 21.543 7.56844 21.7383 7.66047 21.9107L7.11563 22.4284ZM6.22469 19.7386C4.475 19.7386 3.05164 18.3151 3.05164 16.5655C3.05164 16.2419 2.7893 15.9796 2.4657 15.9796C2.43289 15.9796 2.40086 15.983 2.36953 15.9882C2.37125 15.9378 2.37289 15.8873 2.37461 15.8374C2.38766 15.4345 2.40023 15.054 2.42344 14.7276C2.49828 13.6747 2.91898 12.7046 3.60805 11.9957C4.30328 11.2804 5.2325 10.8865 6.22453 10.8865C7.21656 10.8865 8.1457 11.2804 8.84102 11.9957C9.53008 12.7046 9.95078 13.6747 10.0256 14.7276C10.0487 15.0539 10.0614 15.4344 10.0747 15.8372C10.0759 15.8718 10.077 15.9069 10.0782 15.9417C9.4407 14.9595 8.45617 14.2357 7.18406 13.8269C6.00883 13.4494 4.99805 13.4727 4.95539 13.4738C4.80195 13.4781 4.65633 13.5423 4.54984 13.6528L3.49266 14.7492C3.26805 14.9822 3.27477 15.3531 3.50773 15.5777C3.7407 15.8023 4.11164 15.7955 4.33625 15.5626L5.21594 14.6504C5.97352 14.6874 8.41078 14.9708 9.35867 17.0581C9.12016 18.5962 7.79813 19.7386 6.22469 19.7386ZM8.68976 20.8446L8.68984 20.1458C9.37148 19.6765 9.91344 19.0163 10.2368 18.2357C10.307 18.7402 10.4107 19.2182 10.5704 19.6355C10.337 19.9199 9.78469 20.4504 8.68976 20.8446ZM14.3284 11.3388V9.88506C14.3284 9.79686 14.3084 9.70975 14.2701 9.6303C13.893 8.84952 13.7019 8.02108 13.7019 7.16795V5.91498C13.7019 3.47444 15.6874 1.48897 18.1279 1.48897H26.313V7.16803C26.313 8.02116 26.1218 8.84959 25.7448 9.63037C25.7064 9.70983 25.6865 9.79694 25.6865 9.88514V11.5535C25.6865 13.1403 25.0486 14.6121 23.8903 15.6978C23.7457 15.8333 23.5956 15.9603 23.4405 16.0787C23.437 16.081 23.4338 16.0836 23.4304 16.086C22.3453 16.9098 21.0163 17.3102 19.6283 17.2203C16.6563 17.0279 14.3284 14.4444 14.3284 11.3388ZM17.6275 23.1287C17.6234 23.1328 17.614 23.1424 17.5948 23.1404C17.5758 23.1385 17.5683 23.1273 17.5651 23.1225L15.7428 20.389L16.3292 19.7729L19.0937 21.6625L17.6275 23.1287ZM20.0074 20.8676L16.8344 18.6987V17.6049C17.6554 18.0487 18.5747 18.3263 19.5524 18.3896C19.7069 18.3996 19.8604 18.4045 20.0134 18.4045C21.1338 18.4045 22.2121 18.1367 23.1805 17.6283V18.6987L20.0074 20.8676ZM22.4498 23.1226C22.4466 23.1275 22.4391 23.1387 22.42 23.1405C22.4009 23.143 22.3915 23.1329 22.3873 23.1289L20.9212 21.6627L23.6856 19.773L24.2721 20.3892L22.4498 23.1226ZM33.1491 22.6283L31.8194 21.2987C31.8426 21.1933 31.8557 21.0779 31.8556 20.9506L31.8555 20.7033C32.2245 20.8244 32.6134 20.8963 33.0159 20.9083C33.061 20.9097 33.1058 20.9104 33.1508 20.9104C33.5955 20.9104 34.0295 20.8432 34.4427 20.715V20.9509C34.4427 21.0678 34.4573 21.1823 34.485 21.2924L33.1491 22.6283ZM35.3587 18.8428C34.7377 19.4455 33.9173 19.7637 33.0511 19.737C31.3555 19.6862 29.976 18.1926 29.976 16.4079V15.3125C29.976 15.2215 29.9548 15.1318 29.9141 15.0505L29.5522 14.3265C29.4196 14.0613 29.3495 13.7644 29.3495 13.4679V13.433C29.3495 12.0287 30.492 10.8864 31.8961 10.8864H36.9487V13.32C36.9487 13.7133 36.8557 14.1071 36.6798 14.4589L36.3841 15.0505C36.3434 15.1319 36.3222 15.2215 36.3222 15.3125V16.5655C36.3222 17.4311 35.98 18.2398 35.3587 18.8428Z" fill="#231F20"/>
</svg>
