<svg width="40" height="40" viewBox="0 0 40 40" fill="none" xmlns="http://www.w3.org/2000/svg">
<g id="team 2" opacity="0.5">
<g id="Group">
<g id="Group_2">
<path id="Vector" d="M35.291 18.536C33.9299 17.8555 31.378 17.8477 31.27 17.8477C30.9464 17.8477 30.6841 18.11 30.6841 18.4336C30.6841 18.7572 30.9464 19.0195 31.27 19.0195C31.9285 19.0196 33.8405 19.121 34.767 19.5842C34.8511 19.6263 34.9405 19.6462 35.0285 19.6462C35.2435 19.6462 35.4504 19.5274 35.5531 19.3222C35.6978 19.0327 35.5805 18.6808 35.291 18.536Z" fill="#231F20"/>
</g>
</g>
<g id="Group_3">
<g id="Group_4">
<path id="Vector_2" d="M38.2119 26.8779L35.792 26.1865C35.6875 26.1567 35.6145 26.06 35.6145 25.9513V25.1436C35.8114 25.0071 35.9992 24.8545 36.1748 24.6841C37.0255 23.8585 37.4941 22.7511 37.4941 21.5657V20.4511L37.728 19.9832C37.9848 19.4696 38.1205 18.8945 38.1205 18.3203V15.3007C38.1205 14.9771 37.8582 14.7148 37.5346 14.7148H31.8961C29.8458 14.7148 28.1777 16.3829 28.1777 18.4332V18.4682C28.1777 18.9457 28.2905 19.4239 28.5041 19.8509L28.8041 20.4511V21.4081C28.8041 22.9248 29.5516 24.2857 30.6837 25.1046L30.6838 25.9511C30.6838 26.0817 30.6838 26.1357 30.2 26.274L29.0192 26.6114L25.6035 25.3693C25.6158 25.2082 25.5614 25.0443 25.4438 24.9207L24.3523 23.774V21.849C24.4677 21.7539 24.5815 21.6563 24.6917 21.553C26.0687 20.2624 26.8584 18.4402 26.8584 16.5537V15.0164C27.2741 14.1116 27.4848 13.1542 27.4848 12.1682V5.90332C27.4848 5.57973 27.2225 5.31738 26.8989 5.31738H18.1279C15.0412 5.31738 12.53 7.82863 12.53 10.9153V12.1683C12.53 13.1543 12.7407 14.1118 13.1565 15.0165V16.3393C13.1565 18.5296 14.1304 20.5029 15.6625 21.8038V23.7741L14.571 24.9208C14.4534 25.0443 14.3991 25.2082 14.4113 25.3694L10.8063 26.6803C10.545 26.7753 10.3023 26.9039 10.0819 27.0598L9.51578 26.7768C11.2009 26.0432 11.7348 25.0116 11.7604 24.9604C11.8429 24.7954 11.8429 24.6012 11.7604 24.4363C11.338 23.5914 11.2868 22.0429 11.2457 20.7987C11.232 20.3845 11.2191 19.9932 11.1943 19.6447C10.9945 16.8343 8.85797 14.7148 6.22437 14.7148C3.59078 14.7148 1.45414 16.8342 1.25445 19.6447C1.22969 19.9932 1.21672 20.3846 1.20305 20.7989C1.16195 22.043 1.1107 23.5914 0.688359 24.4362C0.605859 24.6011 0.605859 24.7953 0.688359 24.9603C0.713984 25.0115 1.24672 26.0411 2.93523 26.7754L1.36281 27.5616C0.522187 27.9822 0 28.8271 0 29.7669V34.0957C0 34.4193 0.262344 34.6817 0.585938 34.6817C0.909531 34.6817 1.17188 34.4193 1.17188 34.0957V29.7669C1.17188 29.2738 1.44586 28.8304 1.88688 28.6099L3.84492 27.6309L4.52602 28.2782C5.00227 28.7307 5.6132 28.9569 6.22437 28.9569C6.83539 28.9569 7.44664 28.7306 7.92273 28.2782L8.60375 27.631L9.24219 27.9502C8.94156 28.4312 8.77094 28.9953 8.77094 29.5861V34.0959C8.77094 34.4195 9.03328 34.6818 9.35687 34.6818C9.68047 34.6818 9.94281 34.4195 9.94281 34.0959V29.5861C9.94281 28.7818 10.4507 28.0566 11.2067 27.7817L15.0077 26.3996L16.5899 28.7731C16.7922 29.0765 17.1163 29.2711 17.4792 29.3071C17.5197 29.3111 17.5599 29.313 17.6001 29.313C17.9202 29.313 18.2269 29.187 18.4561 28.9578L19.4214 27.9925V34.096C19.4214 34.4196 19.6838 34.6819 20.0073 34.6819C20.3309 34.6819 20.5933 34.4196 20.5933 34.096V27.9925L21.5586 28.9578C21.7877 29.1871 22.0944 29.3131 22.4146 29.3131C22.4547 29.3131 22.495 29.3111 22.5354 29.3071C22.8984 29.2712 23.2225 29.0766 23.4248 28.7732L25.0071 26.3997L28.808 27.7818C29.5639 28.0568 30.0719 28.7819 30.0719 29.5863V34.0961C30.0719 34.4196 30.3342 34.682 30.6578 34.682C30.9814 34.682 31.2438 34.4196 31.2438 34.0961V29.5863C31.2438 28.7716 30.9201 28.0075 30.3771 27.4425L30.5219 27.4011C30.6679 27.3594 30.8671 27.3023 31.0671 27.2043L32.5631 28.7003V34.0961C32.5631 34.4196 32.8255 34.682 33.1491 34.682C33.4727 34.682 33.735 34.4196 33.735 34.0961V28.7003L35.2206 27.2146C35.2996 27.2548 35.3826 27.2887 35.4699 27.3136L37.8899 28.005C38.4423 28.1628 38.8281 28.6743 38.8281 29.2489V34.0961C38.8281 34.4196 39.0905 34.682 39.4141 34.682C39.7377 34.682 40 34.4196 40 34.0961V29.2489C40 28.1537 39.2647 27.1788 38.2119 26.8779ZM3.75898 25.843C2.66297 25.4486 2.1132 24.9228 1.87852 24.6357C2.03852 24.2175 2.14227 23.7384 2.2125 23.2327C2.53562 24.0075 3.0768 24.6689 3.75898 25.1407V25.843ZM7.11563 27.4288C6.61586 27.9036 5.83297 27.9036 5.33336 27.4287L4.78844 26.9109C4.88039 26.7386 4.93094 26.5433 4.93094 26.3387V25.7142C5.33969 25.8419 5.77422 25.9108 6.22453 25.9108C6.6743 25.9108 7.10859 25.8416 7.51805 25.7146L7.51797 26.3386C7.51797 26.5433 7.56844 26.7387 7.66047 26.9111L7.11563 27.4288ZM6.22469 24.7389C4.475 24.7389 3.05164 23.3155 3.05164 21.5659C3.05164 21.2423 2.7893 20.98 2.4657 20.98C2.43289 20.98 2.40086 20.9833 2.36953 20.9886C2.37125 20.9382 2.37289 20.8877 2.37461 20.8378C2.38766 20.4349 2.40023 20.0543 2.42344 19.7279C2.49828 18.6751 2.91898 17.705 3.60805 16.9961C4.30328 16.2807 5.2325 15.8868 6.22453 15.8868C7.21656 15.8868 8.1457 16.2807 8.84102 16.9961C9.53008 17.705 9.95078 18.6751 10.0256 19.7279C10.0487 20.0543 10.0614 20.4347 10.0747 20.8375C10.0759 20.8721 10.077 20.9072 10.0782 20.9421C9.4407 19.9599 8.45617 19.2361 7.18406 18.8273C6.00883 18.4497 4.99805 18.4731 4.95539 18.4742C4.80195 18.4785 4.65633 18.5427 4.54984 18.6532L3.49266 19.7496C3.26805 19.9825 3.27477 20.3535 3.50773 20.5781C3.7407 20.8027 4.11164 20.7959 4.33625 20.563L5.21594 19.6507C5.97352 19.6878 8.41078 19.9712 9.35867 22.0585C9.12016 23.5966 7.79813 24.7389 6.22469 24.7389ZM8.68976 25.845L8.68984 25.1461C9.37148 24.6768 9.91344 24.0167 10.2368 23.2361C10.307 23.7406 10.4107 24.2186 10.5704 24.6359C10.337 24.9203 9.78469 25.4507 8.68976 25.845ZM14.3284 16.3392V14.8854C14.3284 14.7972 14.3084 14.7101 14.2701 14.6307C13.893 13.8499 13.7019 13.0214 13.7019 12.1683V10.9154C13.7019 8.4748 15.6874 6.48934 18.1279 6.48934H26.313V12.1684C26.313 13.0215 26.1218 13.85 25.7448 14.6307C25.7064 14.7102 25.6865 14.7973 25.6865 14.8855V16.5539C25.6865 18.1407 25.0486 19.6125 23.8903 20.6982C23.7457 20.8336 23.5956 20.9607 23.4405 21.079C23.437 21.0814 23.4338 21.0839 23.4304 21.0864C22.3453 21.9102 21.0163 22.3106 19.6283 22.2207C16.6563 22.0282 14.3284 19.4448 14.3284 16.3392ZM17.6275 28.1291C17.6234 28.1332 17.614 28.1428 17.5948 28.1407C17.5758 28.1389 17.5683 28.1277 17.5651 28.1229L15.7428 25.3894L16.3292 24.7732L19.0937 26.6628L17.6275 28.1291ZM20.0074 25.8679L16.8344 23.699V22.6053C17.6554 23.0491 18.5747 23.3267 19.5524 23.39C19.7069 23.4 19.8604 23.4049 20.0134 23.4049C21.1338 23.4049 22.2121 23.1371 23.1805 22.6287V23.699L20.0074 25.8679ZM22.4498 28.123C22.4466 28.1278 22.4391 28.139 22.42 28.1409C22.4009 28.1433 22.3915 28.1332 22.3873 28.1293L20.9212 26.6631L23.6856 24.7734L24.2721 25.3896L22.4498 28.123ZM33.1491 27.6286L31.8194 26.299C31.8426 26.1936 31.8557 26.0782 31.8556 25.951L31.8555 25.7037C32.2245 25.8248 32.6134 25.8967 33.0159 25.9087C33.061 25.9101 33.1058 25.9107 33.1508 25.9107C33.5955 25.9107 34.0295 25.8436 34.4427 25.7153V25.9513C34.4427 26.0682 34.4573 26.1827 34.485 26.2928L33.1491 27.6286ZM35.3587 23.8432C34.7377 24.4458 33.9173 24.7641 33.0511 24.7374C31.3555 24.6865 29.976 23.193 29.976 21.4082V20.3128C29.976 20.2218 29.9548 20.1321 29.9141 20.0508L29.5522 19.3269C29.4196 19.0617 29.3495 18.7648 29.3495 18.4682V18.4333C29.3495 17.0291 30.492 15.8868 31.8961 15.8868H36.9487V18.3203C36.9487 18.7136 36.8557 19.1075 36.6798 19.4593L36.3841 20.0508C36.3434 20.1322 36.3222 20.2218 36.3222 20.3128V21.5658C36.3222 22.4314 35.98 23.2402 35.3587 23.8432Z" fill="#231F20"/>
</g>
</g>
<g id="Group_5">
<g id="Group_6">
<path id="Vector_3" d="M36.9082 29.751C36.5846 29.751 36.3223 30.0133 36.3223 30.3369V34.0959C36.3223 34.4195 36.5846 34.6818 36.9082 34.6818C37.2318 34.6818 37.4941 34.4195 37.4941 34.0959V30.3369C37.4941 30.0134 37.2318 29.751 36.9082 29.751Z" fill="#231F20"/>
</g>
</g>
<g id="Group_7">
<g id="Group_8">
<path id="Vector_4" d="M3.0918 30.5254C2.7682 30.5254 2.50586 30.7877 2.50586 31.1113V34.0958C2.50586 34.4194 2.7682 34.6817 3.0918 34.6817C3.41539 34.6817 3.67773 34.4194 3.67773 34.0958V31.1113C3.67773 30.7878 3.41539 30.5254 3.0918 30.5254Z" fill="#231F20"/>
</g>
</g>
<g id="Group_9">
<g id="Group_10">
<path id="Vector_5" d="M24.8079 12.3816C22.5918 10.1655 17.9551 10.5892 16.0644 10.8742C15.4688 10.964 15.0366 11.468 15.0366 12.0726V13.4224C15.0366 13.746 15.299 14.0084 15.6226 14.0084C15.9462 14.0084 16.2085 13.746 16.2085 13.4224V12.0725C16.2085 12.0526 16.2216 12.0355 16.2391 12.0329C16.9944 11.9191 18.493 11.7434 20.0458 11.8469C21.8729 11.9686 23.1964 12.4273 23.9793 13.2102C24.2081 13.4391 24.5791 13.4391 24.8079 13.2102C25.0367 12.9814 25.0367 12.6104 24.8079 12.3816Z" fill="#231F20"/>
</g>
</g>
<g id="Group_11">
<g id="Group_12">
<path id="Vector_6" d="M13.1152 31.0049C12.7916 31.0049 12.5293 31.2672 12.5293 31.5908V34.0968C12.5293 34.4204 12.7916 34.6828 13.1152 34.6828C13.4388 34.6828 13.7012 34.4204 13.7012 34.0968V31.5908C13.7012 31.2673 13.4388 31.0049 13.1152 31.0049Z" fill="#231F20"/>
</g>
</g>
<g id="Group_13">
<g id="Group_14">
<path id="Vector_7" d="M26.8989 31.0049C26.5753 31.0049 26.313 31.2672 26.313 31.5908V34.0968C26.313 34.4204 26.5753 34.6828 26.8989 34.6828C27.2225 34.6828 27.4849 34.4204 27.4849 34.0968V31.5908C27.4849 31.2673 27.2225 31.0049 26.8989 31.0049Z" fill="#231F20"/>
</g>
</g>
</g>
</svg>
