<svg width="40" height="40" viewBox="0 0 40 40" fill="none" xmlns="http://www.w3.org/2000/svg">
<g opacity="0.5" clip-path="url(#clip0_5981_3286)">
<path d="M37.3327 6.66725C37.3305 4.82722 35.8394 3.33612 33.9994 3.33392C33.274 3.3364 32.5696 3.57798 31.9954 4.02125C24.5771 -1.53495 14.3119 -1.26129 7.2002 4.68226C0.0884495 10.6258 -2.00332 20.6793 2.14757 28.9662C6.29846 37.2531 15.6025 41.5984 24.6214 39.4622C33.6402 37.326 40.0066 29.269 39.9994 20.0006C40.0077 16.0011 38.8039 12.0929 36.5467 8.79125C37.051 8.19811 37.3294 7.44579 37.3327 6.66725ZM31.9654 19.3339C31.6208 13.2419 26.758 8.3792 20.666 8.03458V1.36125C24.4436 1.47827 28.093 2.75881 31.1154 5.02792C30.8245 5.52554 30.6696 6.09087 30.666 6.66725C30.6682 8.50729 32.1593 9.99838 33.9994 10.0006C34.5227 9.9972 35.0376 9.86898 35.5014 9.62659C37.4405 12.5025 38.5286 15.8672 38.6407 19.3339H31.9654ZM25.9994 28.0006C25.9994 26.896 26.8948 26.0006 27.9994 26.0006C29.1039 26.0006 29.9994 26.896 29.9994 28.0006C29.9994 29.1052 29.1039 30.0006 27.9994 30.0006C26.8948 30.0006 25.9994 29.1052 25.9994 28.0006ZM29.4154 24.9946C28.9736 24.7816 28.4898 24.6697 27.9994 24.6673C26.1593 24.6695 24.6682 26.1606 24.666 28.0006C24.6685 28.4911 24.7804 28.9748 24.9934 29.4166C23.655 30.1297 22.1795 30.5482 20.666 30.6439V30.0006C20.666 29.6324 20.3676 29.3339 19.9994 29.3339C19.6312 29.3339 19.3327 29.6324 19.3327 30.0006V30.6333C13.9765 30.2916 9.70838 26.0234 9.36671 20.6673H9.99938C10.3676 20.6673 10.666 20.3688 10.666 20.0006C10.666 19.6324 10.3676 19.3339 9.99938 19.3339H9.35605C9.45168 17.8204 9.87016 16.3449 10.5834 15.0066C11.0252 15.2196 11.5089 15.3314 11.9994 15.3339C13.8394 15.3317 15.3305 13.8406 15.3327 12.0006C15.3302 11.5101 15.2184 11.0264 15.0054 10.5846C16.3438 9.87146 17.8192 9.45298 19.3327 9.35725V16.0606C17.6577 16.3469 16.3456 17.6589 16.0594 19.3339H14.666C14.2979 19.3339 13.9994 19.6324 13.9994 20.0006C13.9994 20.3688 14.2979 20.6673 14.666 20.6673H16.0594C16.3456 22.3423 17.6577 23.6543 19.3327 23.9406V25.3339C19.3327 25.7021 19.6312 26.0006 19.9994 26.0006C20.3676 26.0006 20.666 25.7021 20.666 25.3339V23.9406C22.3411 23.6543 23.6531 22.3423 23.9394 20.6673H30.6427C30.5471 22.1808 30.1286 23.6563 29.4154 24.9946ZM13.9994 12.0006C13.9994 13.1052 13.1039 14.0006 11.9994 14.0006C10.8948 14.0006 9.99938 13.1052 9.99938 12.0006C9.99938 10.896 10.8948 10.0006 11.9994 10.0006C13.1039 10.0006 13.9994 10.896 13.9994 12.0006ZM19.3327 19.3339H17.4274C17.6713 18.401 18.3998 17.6725 19.3327 17.4286V19.3339ZM19.3327 20.6673V22.5726C18.3998 22.3287 17.6713 21.6001 17.4274 20.6673H19.3327ZM20.666 20.6673H22.5714C22.3275 21.6001 21.5989 22.3287 20.666 22.5726V20.6673ZM20.666 19.3339V17.4286C21.5989 17.6725 22.3275 18.401 22.5714 19.3339H20.666ZM23.9394 19.3339C23.6531 17.6589 22.3411 16.3469 20.666 16.0606V9.36792C26.0222 9.70958 30.2904 13.9777 30.632 19.3339H23.9394ZM35.9994 6.66725C35.9994 7.77182 35.1039 8.66725 33.9994 8.66725C32.8948 8.66725 31.9994 7.77182 31.9994 6.66725C31.9994 5.56268 32.8948 4.66725 33.9994 4.66725C35.1039 4.66725 35.9994 5.56268 35.9994 6.66725ZM20.666 38.6506V37.3339C20.666 36.9657 20.3676 36.6673 19.9994 36.6673C19.6312 36.6673 19.3327 36.9657 19.3327 37.3339V38.6506C9.55407 38.2899 1.71003 30.4459 1.34938 20.6673H2.66605C3.03424 20.6673 3.33271 20.3688 3.33271 20.0006C3.33271 19.6324 3.03424 19.3339 2.66605 19.3339H1.34938C1.71003 9.55528 9.55407 1.71123 19.3327 1.35058V8.02392C17.5296 8.12567 15.7729 8.63463 14.1947 9.51259C12.883 8.33818 10.8822 8.39341 9.63718 9.63838C8.3922 10.8834 8.33698 12.8842 9.51138 14.1959C8.63343 15.7742 8.12447 17.5308 8.02271 19.3339H7.33271C6.96452 19.3339 6.66605 19.6324 6.66605 20.0006C6.66605 20.3688 6.96452 20.6673 7.33271 20.6673H8.03338C8.378 26.7593 13.2407 31.622 19.3327 31.9666V32.6673C19.3327 33.0354 19.6312 33.3339 19.9994 33.3339C20.3676 33.3339 20.666 33.0354 20.666 32.6673V31.9773C22.4692 31.8755 24.2258 31.3665 25.804 30.4886C27.1158 31.663 29.1166 31.6078 30.3616 30.3628C31.6066 29.1178 31.6618 27.117 30.4874 25.8053C31.3653 24.227 31.8743 22.4704 31.976 20.6673H38.6494C38.2887 30.4459 30.4447 38.2899 20.666 38.6506Z" fill="#231F20"/>
</g>
<defs>
<clipPath id="clip0_5981_3286">
<rect width="40" height="40" fill="white"/>
</clipPath>
</defs>
</svg>
