<svg width="40" height="41" viewBox="0 0 40 41" fill="none" xmlns="http://www.w3.org/2000/svg">
<g opacity="0.5" clip-path="url(#clip0_5981_3267)">
<path d="M27.189 12.166C26.757 12.166 26.4062 12.5164 26.4062 12.9499C26.4062 13.383 26.757 13.7341 27.189 13.7341C27.622 13.7341 27.9718 13.383 27.9718 12.9499C27.9718 12.5164 27.622 12.166 27.189 12.166Z" fill="#231F20"/>
<path d="M12.9669 26.415C12.5339 26.415 12.1841 26.7664 12.1841 27.1992C12.1841 27.633 12.5339 27.9834 12.9669 27.9834C13.3989 27.9834 13.7496 27.633 13.7496 27.1992C13.7496 26.7664 13.3989 26.415 12.9669 26.415Z" fill="#231F20"/>
<path d="M39.1439 4.82338C38.8798 4.76181 38.6021 4.84176 38.4113 5.03475L35.1661 8.31149H33.6104L31.8977 6.53389V4.95357L35.0964 1.70134C35.2857 1.50897 35.3628 1.23236 35.3001 0.969224C35.2377 0.706398 35.0444 0.494423 34.7888 0.408039C33.9852 0.136637 33.1444 -0.000902165 32.2891 -0.000902165C29.7396 -0.000902165 27.4234 1.19008 25.9342 3.26665C24.5405 5.21058 24.1109 7.59285 24.7264 9.87282L18.9605 15.6492L9.35431 6.00365V4.11057C9.35431 3.83518 9.20999 3.57971 8.97424 3.43819L3.43944 0.110906C3.13122 -0.0744198 2.73708 -0.0257143 2.48329 0.22884L0.269492 2.44631C0.0157004 2.70087 -0.0329174 3.09572 0.151769 3.40449L3.47246 8.94925C3.61373 9.18543 3.86844 9.3297 4.14333 9.33001L6.0324 9.33062L15.6395 18.9761L9.89553 24.7304C7.61966 24.1141 5.24044 24.5451 3.29909 25.9422C1.22748 27.4331 0.0395508 29.7529 0.0395508 32.307C0.0395508 33.1635 0.176843 34.0062 0.447758 34.8109C0.534292 35.0685 0.748027 35.263 1.01221 35.3243C1.27671 35.3859 1.55404 35.3059 1.74515 35.1129L4.99002 31.8365H6.55435L8.3367 33.6221V35.1892L5.06615 38.4399C4.87352 38.6314 4.79371 38.9092 4.85517 39.1742C4.91632 39.4388 5.11049 39.653 5.36765 39.7396C6.17091 40.011 7.01209 40.1486 7.86703 40.1486C10.4166 40.1486 12.7319 38.9582 14.2204 36.8829C15.615 34.938 16.0452 32.5548 15.43 30.2749L20.0432 25.6534L21.1 26.8033L20.615 27.2888C20.3092 27.5951 20.3092 28.0917 20.615 28.398C20.9208 28.704 21.4161 28.704 21.7222 28.398L22.1613 27.9581L32.0763 38.7475C32.0836 38.7554 32.0913 38.7631 32.0989 38.7707C33.9336 40.6087 36.906 40.6093 38.7415 38.7704C40.5719 36.9359 40.5719 33.9507 38.7415 32.1162C38.7336 32.1082 38.7253 32.1006 38.7171 32.0929L27.9303 22.179L28.3645 21.7441C28.6703 21.438 28.6703 20.9415 28.3645 20.6352C28.0588 20.3289 27.5634 20.3289 27.2573 20.6352L26.7757 21.1179L25.6257 20.0605L30.2612 15.4167C30.9202 15.5931 31.6002 15.6825 32.2891 15.6825C36.6054 15.6825 40.1166 12.1647 40.1166 7.84097C40.1166 6.98419 39.9793 6.1418 39.7084 5.33678C39.6219 5.07916 39.4081 4.88465 39.1439 4.82338ZM6.91119 7.9926C6.76442 7.84526 6.56536 7.77021 6.35743 7.77021L4.58701 7.7696L1.80875 3.12268L3.15813 1.77087L7.78876 4.55474V6.32835C7.78876 6.53604 7.87101 6.73515 8.01747 6.88218L17.8536 16.7583L16.7464 17.8672L6.91119 7.9926ZM26.8222 23.2892L37.6457 33.2364C38.8547 34.4605 38.851 36.4424 37.6343 37.6618C36.4149 38.8835 34.4408 38.8871 33.2165 37.6726L23.2691 26.848L26.8222 23.2892ZM25.6676 22.2278L22.2078 25.6932L21.151 24.5432L24.5176 21.1703L25.6676 22.2278ZM32.2891 14.1142C31.6045 14.1142 30.9312 14.0042 30.2885 13.7873C30.0068 13.6927 29.6956 13.7656 29.4852 13.976C25.5609 17.9074 17.105 26.3781 13.9914 29.4977C13.781 29.7085 13.7079 30.0203 13.803 30.3027C14.4537 32.2384 14.1424 34.303 12.9487 35.9679C11.7583 37.6278 9.90593 38.5802 7.86703 38.5802C7.63801 38.5802 7.41021 38.5676 7.18455 38.5434L9.67079 36.072C9.81878 35.925 9.90226 35.7247 9.90226 35.5154V33.297C9.90226 33.0891 9.8197 32.8896 9.67293 32.7426L7.43192 30.4976C7.28515 30.3505 7.08609 30.2678 6.87847 30.2678H4.66406C4.45522 30.2678 4.25524 30.3514 4.10817 30.4997L1.6415 32.9904C1.61703 32.7644 1.6048 32.5361 1.6048 32.3067C1.6048 30.2638 2.55515 28.4084 4.21244 27.2159C5.87401 26.02 7.93522 25.7079 9.86771 26.3601C10.1493 26.4553 10.4606 26.3821 10.671 26.1714C10.7141 26.1285 26.1538 10.6607 26.1648 10.6497C26.3752 10.4389 26.4479 10.1274 26.3532 9.84494C25.7022 7.90928 26.0128 5.84528 27.2056 4.18164C28.3969 2.52014 30.2496 1.56747 32.2888 1.56747C32.5249 1.56747 32.7594 1.58064 32.9918 1.60638L30.5572 4.08177C30.4129 4.2285 30.3322 4.42608 30.3322 4.63193V6.85032C30.3322 7.05372 30.4108 7.24885 30.5517 7.39497L32.7145 9.64001C32.8618 9.79317 33.0652 9.87955 33.2777 9.87955H35.4921C35.7006 9.87955 35.9006 9.79623 36.0477 9.64767L38.5144 7.15726C38.5388 7.38333 38.5511 7.61154 38.5511 7.84097C38.5511 11.3 35.7419 14.1142 32.2891 14.1142Z" fill="#231F20"/>
<path d="M24.421 14.6135L14.6256 24.4266C14.3201 24.7326 14.3201 25.2292 14.6256 25.5355C14.9314 25.8418 15.427 25.8418 15.7328 25.5355L25.5282 15.7224C25.834 15.4164 25.834 14.9199 25.5282 14.6135C25.2225 14.3072 24.7268 14.3072 24.421 14.6135Z" fill="#231F20"/>
<path d="M34.3136 35.4457C34.6194 35.7511 35.1151 35.7511 35.4208 35.4439C35.726 35.1373 35.7251 34.6407 35.419 34.335L28.3633 27.2893C28.0572 26.9835 27.5613 26.9845 27.2564 27.2911C26.9509 27.598 26.9518 28.0943 27.2579 28.4L34.3136 35.4457Z" fill="#231F20"/>
</g>
<defs>
<clipPath id="clip0_5981_3267">
<rect width="40" height="40.1504" fill="white"/>
</clipPath>
</defs>
</svg>
