<svg width="40" height="40" viewBox="0 0 40 40" fill="none" xmlns="http://www.w3.org/2000/svg">
<g opacity="0.5" clip-path="url(#clip0_5981_3276)">
<path d="M34.1422 5.85781C30.3647 2.08031 25.3422 0 20 0C14.6578 0 9.63531 2.08031 5.85781 5.85781C2.08039 9.63531 0 14.6578 0 20C0 25.3422 2.08039 30.3647 5.85781 34.1422C9.63531 37.9197 14.6578 40 20 40C25.3422 40 30.3647 37.9197 34.1422 34.1422C37.9196 30.3647 40 25.3422 40 20C40 14.6578 37.9196 9.63531 34.1422 5.85781ZM20 37.6562C10.2643 37.6562 2.34375 29.7357 2.34375 20C2.34375 10.2643 10.2643 2.34375 20 2.34375C29.7357 2.34375 37.6562 10.2643 37.6562 20C37.6562 29.7357 29.7357 37.6562 20 37.6562Z" fill="#231F20"/>
<path d="M21.2555 18.828H18.745C17.3148 18.828 16.1513 17.6645 16.1513 16.2344C16.1513 14.8041 17.3149 13.6406 18.745 13.6406H23.7659C24.4131 13.6406 24.9378 13.1159 24.9378 12.4687C24.9378 11.8216 24.4131 11.2969 23.7659 11.2969H21.1721V8.70312C21.1721 8.05594 20.6475 7.53125 20.0003 7.53125C19.3531 7.53125 18.8284 8.05594 18.8284 8.70312V11.2969H18.7451C16.0225 11.2969 13.8076 13.5119 13.8076 16.2344C13.8076 18.9569 16.0226 21.1718 18.7451 21.1718H21.2556C22.6857 21.1718 23.8493 22.3354 23.8493 23.7655C23.8493 25.1957 22.6857 26.3593 21.2556 26.3593H16.2347C15.5875 26.3593 15.0629 26.884 15.0629 27.5312C15.0629 28.1784 15.5875 28.703 16.2347 28.703H18.8284V31.2969C18.8284 31.9441 19.3531 32.4688 20.0003 32.4688C20.6475 32.4688 21.1721 31.9441 21.1721 31.2969V28.703H21.2555C23.978 28.703 26.1929 26.488 26.1929 23.7655C26.1929 21.043 23.978 18.828 21.2555 18.828Z" fill="#231F20"/>
</g>
<defs>
<clipPath id="clip0_5981_3276">
<rect width="40" height="40" fill="white"/>
</clipPath>
</defs>
</svg>
