<svg width="7" height="10" viewBox="0 0 7 10" fill="none" xmlns="http://www.w3.org/2000/svg">
<g clip-path="url(#clip0_6259_2167)">
<path d="M6.55588 5.77996C6.57781 5.82062 6.57582 5.86993 6.55065 5.90958L3.98877 9.94138C3.96609 9.97671 3.92871 9.99831 3.88734 9.99958C3.88734 9.99958 3.88535 9.99958 3.8836 9.99958C3.84448 9.99958 3.80635 9.98026 3.78317 9.94748L0.899314 5.91543C0.871901 5.8773 0.867664 5.82545 0.889096 5.78301C0.910279 5.74031 0.953143 5.71387 0.999746 5.71387H6.44623C6.49283 5.71337 6.5342 5.73878 6.55588 5.77996Z" fill="#231F20"/>
<path d="M6.44131 4.28571H0.999779C0.954215 4.28571 0.912386 4.2603 0.890226 4.2199C0.869312 4.17873 0.870307 4.12841 0.895455 4.08979L3.455 0.0581932C3.47766 0.0228707 3.51501 0.00127059 3.55609 0C3.59419 0.000508238 3.63602 0.0182966 3.66017 0.0520944L6.52522 4.06006C6.5536 4.08369 6.57103 4.11901 6.57103 4.15865C6.57103 4.22854 6.51501 4.28571 6.44654 4.28571H6.44131Z" fill="#231F20"/>
</g>
<defs>
<clipPath id="clip0_6259_2167">
<rect width="5.69554" height="10" fill="white" transform="translate(0.875488)"/>
</clipPath>
</defs>
</svg>
